<?xml version="1.0" encoding="UTF-8"?>
<svg id="Layer_1" data-name="Layer 1" xmlns="http://www.w3.org/2000/svg" viewBox="0 0 139.68 152.43">
  <defs>
    <style>
      .cls-1 {
        fill: #fff;
      }

      .cls-2 {
        fill: #0f3342;
      }

      .cls-3 {
        fill: #067a53;
      }
    </style>
  </defs>
  <g>
    <polygon class="cls-1" points="63.26 19.38 58.28 25.36 57.92 29.72 60.59 32.9 70.19 37.49 68.63 39.22 57.45 38.72 54.15 41.35 55.6 55.15 58.4 63.37 64.15 63.03 80.25 54.48 68.46 66.39 66.61 73.77 86.12 81.15 89.76 79.64 93.39 67.98 97.92 81.54 102.72 82.26 110.55 78.8 117.65 71.42 117.99 65.89 114.3 60.97 121.84 63.03 127.15 62.25 130.45 60.52 132.97 42.57 128.92 38.72 118.88 38.72 125.42 33.97 130.06 30.95 129.45 26.71 118.55 14.07 112.68 13.56 108.61 18.09 104.35 20.77 106.19 10.04 103.96 5.12 83.72 5.12 81.82 7.41 82.49 14.49 81.71 18.98 76.23 14.12 71.81 12 68 13.51 63.26 19.38"/>
    <polygon class="cls-1" points="52.75 27.32 49.51 31.56 47.85 36.03 46.88 42.41 46.88 52.58 39.78 52.58 39.78 35.25 45.2 23.9 51.3 21.17 52.75 27.32"/>
  </g>
  <g>
    <path class="cls-3" d="M48.27,125.79c-4.51,1.37-8.21,1.87-11.47,1.87-4.56,0-8.24-1-12.05-2.03-1.22-.33-2.48-.68-3.78-.98-3.43-.81-7.23-.27-10.28.53,2.3,4.02,5.31,7.6,8.83,10.59,1.51,1.29,2.58,3,3.11,4.91l.19.7c.45,1.65,1.95,2.8,3.66,2.8h38.26c1.71,0,3.2-1.15,3.65-2.8l.19-.7c.53-1.92,1.61-3.63,3.13-4.93,3.63-3.08,6.72-6.81,9.06-10.99-1.36-.3-2.76-.7-4.18-1.24-9.22-3.53-16.42-1.35-28.34,2.27Z"/>
    <path class="cls-2" d="M133.05,40.25c-1.56-1.92-4.36-2.77-8.3-2.54-.88.05-1.95.09-3.17.12.59-.26,1.15-.51,1.69-.77,2.27-1.1,4.13-2.23,5.54-3.4,1.6-1.33,2.46-2.86,2.54-4.54.17-3.55-3.14-6.9-6.07-9.87-1.23-1.24-2.39-2.42-3.16-3.46-1.83-2.5-4.28-3.85-6.88-3.73-2.33.08-5.83,1.34-9.31,6.86-.15.24-.3.47-.45.7.57-1.96,1.03-3.71,1.38-5.22.9-3.86.59-6.79-.93-8.7-1.47-1.86-3.56-2.13-4.68-2.13h-14.72c-2.2,0-3.76.53-4.76,1.63-1.76,1.95-1.45,5.15-1.01,9.59.09.93.22,1.92.37,2.91-6.54-7.8-8.74-7.56-9.53-7.47-3.05.33-5.71,3.83-8.52,7.53-.12.16-.24.31-.36.47-.52-.07-1.04-.13-1.57-.17-3.83-.31-7.3.17-10.3,1.4-2.75,1.11-5.12,2.84-7.04,5.15-4.82,5.82-6.61,15.21-5.35,27.17l-20.63.02c-.98,0-1.63.99-1.25,1.89,2.11,4.98,9.21,17.8,26.26,17.8h2.96c.23,0,1.66.05,1.66,1.15s-1.57,1.16-1.66,1.16h-23.54c-1.42,0-2.81.47-3.84,1.43-8.08,7.36-13.15,17.97-13.15,29.77,0,2.07.17,4.09.46,6.07,3.2-1.25,7.27-2.47,11.28-2.47s7.33.87,10.37,1.71c2.99.81,5.8,1.59,9.71,1.68,3.47.06,7.62-1.16,11.97-2.46,5.39-1.61,11.49-3.41,17.96-3.21,5.68.2,8.85,1.11,11.64,1.9,2.17.62,4.11,1.2,7.06,1.29.16-1.47.26-2.99.26-4.51,0-9.63-3.38-18.46-9.01-25.39,1.55.56,3.01,1.09,4.17,1.62,1.85.84,3.51,1.26,4.96,1.26,1.01,0,1.92-.21,2.72-.62,1.46-.74,2.43-2.12,2.82-3.97.54-2.26,1.1-5.05,1.6-7.73,1.21,6.22,2.53,10.18,3.94,11.83,1.03,1.2,2.35,1.85,3.93,1.96.15.02.31.02.46.02,1.59,0,3.39-.54,5.4-1.6,2.02-1.07,4.24-2.67,6.66-4.79,2.47-2.16,5.42-5.49,5.5-9.03.05-1.85-.68-3.51-2.15-4.93-.41-.39-.84-.83-1.3-1.3,1.97,1.13,3.72,1.84,5.24,2.11.94.17,1.82.26,2.65.26,1.96,0,3.62-.48,4.95-1.43,2.14-1.53,2.9-3.91,3.16-5.63l.08-.5c.27-1.81.4-2.71,2.14-9.18.9-3.33.61-5.92-.85-7.71ZM131.54,47.32c-1.77,6.61-1.91,7.56-2.19,9.45l-.08.5c-.19,1.26-.72,2.98-2.17,4.02-1.33.95-3.26,1.2-5.74.75-3.01-.55-7.42-3.31-12.75-7.99.32-.49.63-.99.91-1.51.02-.03.03-.06.05-.09.08-.16.16-.32.24-.48.05-.1.1-.2.15-.3.01-.01.01-.03.02-.04.09-.19.18-.38.25-.57.03-.06.05-.11.07-.17.1-.24.2-.47.28-.71.2-.53.37-1.07.51-1.62.05-.19.09-.37.13-.56,1.61.66,4.06,1.5,6.8,1.87.05.01.11.01.16.01.6,0,1.13-.44,1.21-1.05.09-.67-.38-1.28-1.05-1.37-2.82-.38-5.3-1.32-6.72-1.94.01-.09.01-.18.02-.28.03-.41.04-.83.04-1.25h0c0-.27-.01-.52-.02-.78,0-.16-.01-.33-.03-.5v-.1c-.02-.2-.04-.41-.06-.61-.02-.23-.05-.45-.09-.67,1.25-.35,2.41-.7,3.52-1.06,2.45.03,6.79.05,9.9-.13,2.14-.13,4.97.05,6.26,1.65.54.66.82,1.57.82,2.7,0,.82-.15,1.77-.44,2.83ZM115.29,65.39c.97.94,1.43,1.96,1.41,3.11-.02,1.04-.45,2.2-1.24,3.43-.8,1.23-1.96,2.53-3.44,3.83-4.44,3.89-8.26,5.95-10.74,5.77-.92-.06-1.65-.43-2.25-1.12-1.52-1.77-3.18-8.2-4.54-17.61-.03-.24-.06-.47-.09-.7,0-.03-.01-.07-.01-.1.03,0,.07,0,.1-.01.29-.01.57-.03.86-.06.15-.01.29-.03.43-.05.4-.04.8-.1,1.2-.18.19-.04.39-.07.58-.12.2-.04.39-.09.59-.14.18-.04.35-.09.53-.15.17-.04.33-.09.5-.15.27-.08.53-.17.79-.27.27-.1.54-.21.8-.33,1.63,2.87,2.77,5.03,3.1,5.88.19.48.65.77,1.14.77.14,0,.29-.03.44-.08.63-.25.94-.96.69-1.58-.47-1.22-2.02-4.02-3.2-6.1.03-.02.06-.04.09-.06.23-.13.45-.28.67-.43.26-.16.5-.34.74-.52.23-.17.45-.35.67-.53.22-.18.44-.37.65-.56.18-.17.37-.34.54-.51l.05-.05c.23-.23.46-.47.68-.71,2.16,2.66,5.67,6.84,8.26,9.33ZM65.02,19.23c.15-.19.3-.39.44-.58,2.16-2.82,4.52-5.79,6.4-6h.05c.87,0,4.05,2.13,10.32,10.33,1.24,1.63,2.48,3.35,3.48,4.82-.17.08-.33.17-.5.26-.05.02-.09.05-.14.08-.26.14-.51.28-.76.43-.08.05-.16.1-.24.15-.16.11-.33.21-.49.32-.19.12-.37.25-.56.38-.28.21-.56.43-.83.66-.79.64-1.53,1.36-2.2,2.15-2.74-2.34-5.72-4.41-5.86-4.51-.55-.38-1.31-.24-1.7.31-.11.16-.18.34-.2.53-.06.44.12.9.51,1.17.02.01,1.07.74,2.47,1.8.01.01.03.02.04.02.99.76,2.16,1.68,3.27,2.64-.17.25-.33.52-.48.78-.38.65-.72,1.32-1,2.02-.1.25-.2.5-.3.76-.12.32-.23.64-.33.97-.47-.25-.99-.52-1.55-.8-3.21-1.62-7.8-3.76-11.42-4.8-2.4-.69-3.97-1.99-4.4-3.67-.15-.55-.17-1.14-.07-1.73.07-.4.19-.81.37-1.22.17-.4.39-.79.66-1.18.27-.4.6-.78.97-1.16.95-.97,1.9-2.13,2.83-3.33.28-.36.56-.73.84-1.1.13-.16.25-.33.38-.5ZM86.53,6h14.72c.68,0,1.93.16,2.77,1.22,1.02,1.28,1.18,3.57.47,6.62h0c-.71,3.07-1.88,7.09-3.48,11.97-.16.53-.33,1.03-.49,1.51h-.01s-.03-.02-.05-.03c-.46-.19-.93-.36-1.4-.5-.3-.1-.6-.18-.91-.26-.58-.16-1.17-.28-1.76-.36-.22-.04-.45-.07-.68-.09-.2-.03-.41-.05-.62-.06.14-1.97.27-5.06.01-7.6-.07-.67-.66-1.16-1.34-1.09-.67.07-1.15.67-1.08,1.34.25,2.44.09,5.55-.04,7.32-.14.01-.28.02-.42.03-.24.02-.48.04-.71.07-.2.02-.4.05-.6.08-.27.04-.54.09-.81.14-.4.08-.79.17-1.18.28-.3.08-.6.17-.9.27-1.03-1.52-2.35-3.38-3.68-5.14-.57-2.81-.97-5.28-1.16-7.17-.36-3.67-.64-6.56.4-7.71.51-.56,1.47-.84,2.95-.84ZM115.33,14.5c2.26-.08,3.88,1.44,4.83,2.73.87,1.19,2.09,2.43,3.38,3.73,2.58,2.61,5.5,5.56,5.38,8.04-.05.98-.6,1.89-1.67,2.78-2.55,2.12-6.98,4.23-12.81,6.11-.55.18-1.11.36-1.69.53-.29.09-.58.18-.88.26-.29.09-.6.18-.9.26-.02-.05-.03-.1-.05-.15-.02-.05-.04-.1-.05-.15-.01-.04-.02-.08-.04-.12-.06-.21-.13-.42-.22-.63,0-.04-.03-.09-.05-.13-.05-.16-.11-.32-.18-.47,0-.03-.02-.06-.03-.09-.06-.14-.12-.28-.18-.42-.07-.17-.14-.34-.22-.5-.05-.09-.09-.19-.14-.28-.23-.46-.48-.92-.75-1.36-.12-.2-.25-.4-.38-.59-.04-.07-.09-.14-.14-.21-.14-.21-.28-.41-.44-.61-.3-.41-.63-.82-.97-1.2,1.62-1.09,3.8-2.77,5.58-4.92.43-.52.36-1.28-.16-1.71-.52-.43-1.29-.36-1.72.16-1.75,2.11-3.97,3.74-5.47,4.72-.04-.04-.09-.07-.13-.1-.04-.03-.08-.06-.12-.1-.39-.32-.79-.62-1.21-.91-.15-.11-.3-.21-.45-.3-.02-.02-.05-.03-.07-.05-.18-.13-.37-.24-.56-.35-.01,0-.01-.01-.02-.01-.03-.02-.05-.03-.08-.05.14-.39.28-.81.42-1.25.05-.13.09-.26.13-.39,1.54-1.79,3.12-3.99,4.73-6.55,2.27-3.6,4.87-5.63,7.33-5.72ZM40.9,51.78c-1.26-11.4.35-20.25,4.79-25.61,1.21-1.46,2.63-2.65,4.23-3.56,0,.4,0,.8.01,1.2.01.31.03.61.06.92.03.29.07.58.11.87.04.29.08.58.14.86.03.17.06.34.1.5.04.18.09.37.14.56.04.18.09.37.15.55-.42.36-.81.77-1.19,1.21-3.56,4.31-4.77,12.31-3.6,22.49h-4.94ZM48.3,51.77c-1.14-9.58-.12-17.13,3.02-20.93.45-.53.92-.98,1.45-1.37.02-.01.03-.02.04-.03,0,0,.01-.02.02-.02,1.02-.76,2.24-1.26,3.66-1.5-.05.73.01,1.45.19,2.15.66,2.54,2.82,4.46,6.08,5.4,1.61.46,3.43,1.15,5.24,1.93-2.3-.13-4.66-.25-6.72-.33-3.6-.15-6.13.63-7.51,2.28-1.1,1.33-1.43,3.18-.94,5.37.46,2.05.95,4.57,1.41,7.05h-5.94ZM66.36,61.03c-2.41,1.38-4.91,1.78-6.52,1.04-.88-.41-1.43-1.14-1.62-2.17-.23-1.16-.49-2.62-.79-4.23-.22-1.22-.46-2.55-.72-3.9-.48-2.64-1.01-5.37-1.5-7.58-.32-1.44-.18-2.55.43-3.28.78-.93,2.43-1.42,4.8-1.42.24,0,.49.01.75.02,4,.16,9.1.46,12.78.7.18.09.35.17.52.26.5.25.95.49,1.36.7-.14.92-.22,1.86-.22,2.82,0,.25,0,.49.02.74,0,.19.01.37.03.56.01.24.03.47.06.7.01.12.03.24.05.35.02.18.05.36.08.54.04.32.1.63.17.94-4.12.9-6.83,2.22-6.96,2.27-.6.3-.85,1.03-.55,1.63.01.01.01.02.02.03.21.41.63.66,1.07.66.18,0,.36-.04.54-.13.02,0,.46-.22,1.26-.53,1.14-.45,3-1.09,5.3-1.58.2.56.43,1.1.69,1.63.24.52.52,1.03.83,1.53.14.23.29.46.43.68-.22.19-.45.38-.68.59-.93.51-2.38,1.29-3.99,2.18-2.56,1.4-5.55,3.05-7.64,4.25ZM67.77,71.89c0-1.14,1.58-3.86,3.96-6.96,2.1-2.75,4.83-5.81,7.65-8.33.03-.02.07-.04.1-.07.23-.2.46-.4.69-.59.01.01.02.02.03.03.2.22.4.44.61.65.21.22.44.44.67.65.87.8,1.82,1.51,2.83,2.13.25.15.5.29.76.43.14.09.28.16.42.23-.82,1.83-1.97,4.35-2.86,5.96-.32.59-.11,1.33.48,1.65.19.11.39.15.59.15.43,0,.84-.22,1.07-.63.94-1.69,2.13-4.3,2.96-6.18.95.33,1.94.59,2.96.75.18.03.36.06.54.08.22.04.45.06.68.09.02.16.05.32.07.49.02.17.05.34.07.52v.02c-.61,3.58-1.75,10-2.79,14.42-.24,1.14-.76,1.92-1.55,2.32-1.22.62-3.2.38-5.57-.69-1.37-.62-3.04-1.22-4.82-1.86-1.19-.43-2.65-.96-4.07-1.54-2.83-1.16-5.48-2.52-5.48-3.72Z"/>
    <path class="cls-3" d="M66.85,110.49c-5.76-.22-11.26,1.44-16.6,3.04-4.68,1.39-9.09,2.73-13.26,2.63-4.42-.11-7.62-.98-10.72-1.83-2.91-.79-5.67-1.55-9.27-1.55s-7.49,1.25-10.41,2.46c.52,2.03,1.21,4.01,2.04,5.91,2.44-.7,5.43-1.31,8.51-1.33,1.61,0,3.25.14,4.85.53,1.37.33,2.66.68,3.92,1.02,6.14,1.66,11.44,3.11,21.06.19,6.87-2.09,12.64-3.84,18.34-4.16,4.19-.26,8.35.27,12.87,1.99,1.47.56,2.92.95,4.33,1.21.1,0,.21,0,.32,0,.94-2.23,1.68-4.54,2.19-6.93-3.15-.16-5.29-.78-7.52-1.43-2.7-.76-5.47-1.56-10.67-1.74Z"/>
  </g>
</svg>