<svg width="14" height="14" viewBox="0 0 14 14" fill="none" xmlns="http://www.w3.org/2000/svg">
<path d="M9.62312 0C9.27046 0 8.95059 0.213281 8.8139 0.541406C8.67721 0.869531 8.75376 1.24414 9.00254 1.4957L10.1343 2.625L5.50596 7.25703C5.16423 7.59883 5.16423 8.15391 5.50596 8.4957C5.84769 8.8375 6.40266 8.8375 6.74439 8.4957L11.3728 3.86367L12.5046 4.9957C12.7561 5.24727 13.1306 5.32109 13.4587 5.18438C13.7868 5.04766 14 4.73047 14 4.375V0.875C14 0.391016 13.6091 0 13.1252 0L9.62312 0ZM2.18707 0.875C0.978715 0.875 0 1.85391 0 3.0625V11.8125C0 13.0211 0.978715 14 2.18707 14H10.9354C12.1437 14 13.1224 13.0211 13.1224 11.8125V8.75C13.1224 8.26602 12.7315 7.875 12.2476 7.875C11.7637 7.875 11.3728 8.26602 11.3728 8.75V11.8125C11.3728 12.0531 11.1759 12.25 10.9354 12.25H2.18707C1.94649 12.25 1.74966 12.0531 1.74966 11.8125V3.0625C1.74966 2.82188 1.94649 2.625 2.18707 2.625H5.24897C5.73286 2.625 6.1238 2.23398 6.1238 1.75C6.1238 1.26602 5.73286 0.875 5.24897 0.875H2.18707Z" fill="#FFFBF7" fill-opacity="0.4"/>
</svg>
