<?xml version="1.0" encoding="UTF-8"?>
<svg id="Layer_1" data-name="Layer 1" xmlns="http://www.w3.org/2000/svg" viewBox="0 0 70.36 71.31">
  <defs>
    <style>
      .cls-1 {
        fill: none;
        stroke: #000;
        stroke-linecap: round;
        stroke-linejoin: round;
        stroke-width: 5px;
      }
    </style>
  </defs>
  <path class="cls-1" d="M4.32,45.06h3.19c1.59,0,3.15-.47,4.49-1.34l6.27-4.12c1.94-1.27,4.21-1.95,6.53-1.95h16.89c2.57,0,4.65,2.08,4.65,4.65h0c0,2.57-2.08,4.65-4.65,4.65h-9.99"/>
  <path class="cls-1" d="M4.32,56.52h45.49l14.1-9.36c2.21-1.46,2.79-4.45,1.29-6.64h0c-1.44-2.1-4.28-2.7-6.44-1.34l-12.42,7.78h-9.11"/>
  <line class="cls-1" x1="34.93" y1="37.05" x2="34.93" y2="22.85"/>
  <path class="cls-1" d="M50.04,16.8c-.46,3.21-2.58,6.1-5.81,7.39-3.23,1.29-6.75.67-9.3-1.34.46-3.21,2.58-6.09,5.81-7.39s6.76-.67,9.31,1.33Z"/>
  <path class="cls-1" d="M18.75,24.62c1.92,2.61,5.15,4.16,8.61,3.78,3.46-.38,6.27-2.59,7.58-5.56-1.92-2.61-5.14-4.16-8.6-3.79s-6.28,2.59-7.58,5.56Z"/>
</svg>